<svg width="40" height="40" viewBox="0 0 40 40" fill="none" xmlns="http://www.w3.org/2000/svg">
<path d="M32.6782 11.6581C32.5512 11.1617 32.192 10.7871 31.7807 10.6715C31.0498 10.4678 27.5017 10.0001 20.0017 10.0001C12.5016 10.0001 8.95419 10.468 8.22041 10.6721C7.81293 10.7855 7.45383 11.16 7.32516 11.6581C7.14383 12.3655 6.66829 15.3267 6.66829 20.0001C6.66829 24.6734 7.14383 27.6347 7.32566 28.3441C7.45209 28.8386 7.81126 29.2131 8.22084 29.3281C8.95419 29.5322 12.5016 30.0001 20.0017 30.0001C27.5017 30.0001 31.0498 29.5324 31.7828 29.3281C32.1903 29.2147 32.5495 28.8402 32.6782 28.3421C32.8595 27.6347 33.335 24.6667 33.335 20.0001C33.335 15.3334 32.8595 12.3655 32.6782 11.6581ZM35.907 10.8304C36.6683 13.8001 36.6683 20.0001 36.6683 20.0001C36.6683 20.0001 36.6683 26.2001 35.907 29.1697C35.4828 30.8122 34.245 32.1031 32.676 32.5394C29.8285 33.3334 20.0017 33.3334 20.0017 33.3334C20.0017 33.3334 10.1806 33.3334 7.32728 32.5394C5.75243 32.0971 4.51464 30.8061 4.09623 29.1697C3.33496 26.2001 3.33496 20.0001 3.33496 20.0001C3.33496 20.0001 3.33496 13.8001 4.09623 10.8304C4.52044 9.18796 5.75824 7.89705 7.32728 7.46068C10.1806 6.66675 20.0017 6.66675 20.0017 6.66675C20.0017 6.66675 29.8285 6.66675 32.676 7.46068C34.2508 7.90311 35.4887 9.19401 35.907 10.8304ZM16.6683 25.8334V14.1667L26.6683 20.0001L16.6683 25.8334Z" fill="white" fill-opacity="0.8"/>
</svg>
