<svg width="40" height="40" viewBox="0 0 40 40" fill="none" xmlns="http://www.w3.org/2000/svg">
<path d="M25.5831 9.25008C22.9468 9.25008 20.7976 11.3635 20.7506 13.9943L20.7038 16.6194C20.694 17.1715 20.2383 17.6112 19.6861 17.6013C19.6468 17.6007 19.6076 17.5977 19.5688 17.5923L16.9675 17.2377C13.5449 16.7708 10.2647 15.1956 7.11783 12.5735C6.12121 18.0897 8.06663 21.912 12.7557 24.86L15.6673 26.6903C16.1349 26.9843 16.2756 27.6017 15.9817 28.0692C15.9143 28.1763 15.8272 28.2698 15.725 28.3445L13.0723 30.2827C14.6495 30.3817 16.1489 30.3125 17.3916 30.0645C25.2543 28.4955 30.4828 22.5783 30.4828 12.8185C30.4828 12.0217 28.7956 9.25008 25.5831 9.25008ZM17.4178 13.9348C17.4971 9.49306 21.1225 5.91675 25.5831 5.91675C27.8553 5.91675 29.9108 6.84471 31.3913 8.34233C32.577 8.33342 33.5856 8.63318 35.8391 7.26611C35.2821 10.0001 35.0056 11.1867 33.8161 12.8185C33.8161 25.5543 25.9876 31.7482 18.044 33.3333C12.5978 34.4203 4.6774 32.6358 2.40881 30.2645C3.56453 30.1757 8.26543 29.67 10.9815 27.682C8.6832 26.1645 -0.464422 20.7802 5.54616 6.3107C8.36861 9.60511 11.2299 11.8476 14.1301 13.0381C16.0591 13.83 16.5329 13.8142 17.4178 13.9348Z" fill="white" fill-opacity="0.8"/>
</svg>
