<svg width="40" height="40" viewBox="0 0 40 40" fill="none" xmlns="http://www.w3.org/2000/svg">
<path d="M14.1527 31.9853C14.1922 31.4243 14.2718 30.8664 14.3909 30.3161C14.4959 29.8251 14.8144 28.4326 15.2812 26.4163L15.293 26.3651C15.4982 25.4786 15.7181 24.5319 15.938 23.5874C16.07 23.0206 16.1726 22.5806 16.2406 22.4336C15.9169 21.6871 15.755 20.8771 15.7661 20.0621C15.7661 17.8331 17.0262 16.1059 18.6597 16.1059C19.2592 16.0967 19.8327 16.3564 20.2305 16.8166C20.6273 17.2758 20.8105 17.8891 20.734 18.4766C20.734 19.2308 20.5913 19.8073 19.9775 21.8686C19.8597 22.2644 19.779 22.5423 19.7025 22.8199C19.616 23.1331 19.5435 23.4171 19.4812 23.6893C19.3213 24.3338 19.4685 25.0183 19.877 25.5324C20.2845 26.0453 20.9035 26.3276 21.5532 26.2936C24.0403 26.2936 25.8868 22.9851 25.8868 18.7128C25.8868 15.43 23.7353 13.257 20.1667 13.2569C18.3707 13.1854 16.6244 13.8753 15.3349 15.1664C14.0444 16.4584 13.3242 18.2394 13.3426 20.1023C13.3036 21.1054 13.6177 22.0893 14.1967 22.8421C14.4986 23.0734 14.6145 23.4808 14.4877 23.8234C14.4193 24.1053 14.2543 24.7454 14.1941 24.9591C14.1577 25.1719 14.0249 25.3551 13.8354 25.4524C13.6446 25.5504 13.4195 25.5494 13.2436 25.4561C11.3084 24.6589 10.2494 22.4938 10.2494 19.7248C10.2494 14.7484 14.4021 10.4161 20.5695 10.4161C25.7953 10.4161 29.7052 14.2977 29.7052 18.9826C29.7052 24.8699 26.4852 29.1569 21.8895 29.1569C20.5655 29.2003 19.3063 28.6033 18.4783 27.5583L18.4067 27.8533C18.2498 28.4986 18.1713 28.8213 18.0613 29.2729L18.0582 29.2858C17.8145 30.2861 17.6445 30.9807 17.5785 31.2419C17.402 31.8329 17.1783 32.4132 16.9118 32.9734C17.9035 33.2087 18.938 33.3333 20.0017 33.3333C27.3655 33.3333 33.335 27.3638 33.335 19.9999C33.335 12.6361 27.3655 6.66659 20.0017 6.66659C12.6378 6.66659 6.66829 12.6361 6.66829 19.9999C6.66829 25.2656 9.72073 29.8184 14.1527 31.9853ZM20.0017 36.6666C10.7969 36.6666 3.33496 29.2046 3.33496 19.9999C3.33496 10.7952 10.7969 3.33325 20.0017 3.33325C29.2063 3.33325 36.6683 10.7952 36.6683 19.9999C36.6683 29.2046 29.2063 36.6666 20.0017 36.6666Z" fill="white" fill-opacity="0.8"/>
</svg>
