<svg width="40" height="40" viewBox="0 0 40 40" fill="none" xmlns="http://www.w3.org/2000/svg">
<path d="M24.64 8H15.04C14.4 8 13.88 8.52 13.88 9.16V18.68C13.88 19.32 14.4 19.84 15.04 19.84H19.44C19.4 20.96 18.92 22.2 18.24 23.28C17.48 24.52 15.84 25.88 15.8 25.88C15.68 26 15.56 26.16 15.56 26.36C15.56 26.52 15.64 26.64 15.72 26.76L18.8 30.2C18.8 30.2 18.96 30.36 19.08 30.4C19.2 30.44 19.36 30.44 19.48 30.36C24.8 26.24 25.6 21.12 25.72 18.32V9.2C25.8 8.52 25.28 8 24.64 8Z" fill="white" fill-opacity="0.8"/>
</svg>
