<svg width="40" height="40" viewBox="0 0 40 40" fill="none" xmlns="http://www.w3.org/2000/svg">
<path d="M18.334 3.33325V14.0232C17.6578 13.8984 16.9613 13.8333 16.2507 13.8333C9.9454 13.8333 4.83398 18.9446 4.83398 25.2499C4.83398 31.5553 9.9454 36.6666 16.2507 36.6666C22.5558 36.6666 27.6673 31.5553 27.6673 25.2499V19.0226C29.3943 19.7564 31.277 20.1666 33.3342 20.1666H35.0008V10.8333H33.3342C30.161 10.8333 27.6673 8.2709 27.6673 4.99992V3.33325H18.334ZM21.6673 6.66659H24.48C25.1363 10.3667 27.9455 13.3267 31.6675 14.0151V16.7136C29.9373 16.46 28.3755 15.8107 26.9278 14.8416L24.334 13.1054V25.2499C24.334 29.7143 20.715 33.3333 16.2507 33.3333C11.7864 33.3333 8.16732 29.7143 8.16732 25.2499C8.16732 20.7856 11.7864 17.1666 16.2507 17.1666C16.3905 17.1666 16.5295 17.1701 16.6675 17.1771V19.8491C16.5299 19.8386 16.3909 19.8333 16.2507 19.8333C13.2591 19.8333 10.834 22.2584 10.834 25.2499C10.834 28.2414 13.2591 30.6666 16.2507 30.6666C19.2422 30.6666 21.6673 28.2414 21.6673 25.2499C21.6673 19.0556 21.6653 12.861 21.6673 6.66659ZM14.1673 25.2499C14.1673 24.0993 15.1001 23.1666 16.2507 23.1666C17.4012 23.1666 18.334 24.0993 18.334 25.2499C18.334 26.4006 17.4012 27.3333 16.2507 27.3333C15.1001 27.3333 14.1673 26.4006 14.1673 25.2499Z" fill="white" fill-opacity="0.8"/>
</svg>
