<svg width="40" height="40" viewBox="0 0 40 40" fill="none" xmlns="http://www.w3.org/2000/svg">
<path d="M20.0017 14.9999C17.2393 14.9999 15.0016 17.2384 15.0016 19.9999C15.0016 22.7621 17.2402 24.9999 20.0017 24.9999C22.7638 24.9999 25.0017 22.7614 25.0017 19.9999C25.0017 17.2378 22.7632 14.9999 20.0017 14.9999ZM20.0017 11.6666C24.6023 11.6666 28.335 15.3951 28.335 19.9999C28.335 24.6008 24.6065 28.3333 20.0017 28.3333C15.4008 28.3333 11.6683 24.6048 11.6683 19.9999C11.6683 15.3991 15.3968 11.6666 20.0017 11.6666ZM30.835 11.2485C30.835 12.3987 29.9003 13.3319 28.7517 13.3319C27.6015 13.3319 26.6683 12.3973 26.6683 11.2485C26.6683 10.0998 27.6028 9.16658 28.7517 9.16658C29.8988 9.16514 30.835 10.0998 30.835 11.2485ZM20.0017 6.66659C15.8775 6.66659 15.2053 6.6775 13.2871 6.76292C11.9802 6.82427 11.1042 7.00004 10.2903 7.31604C9.56693 7.59657 9.04515 7.93155 8.48919 8.4875C7.93111 9.04558 7.59673 9.56597 7.31733 10.2896C7.00059 11.1055 6.82488 11.9801 6.76463 13.2852C6.67838 15.1253 6.66829 15.7683 6.66829 19.9999C6.66829 24.1241 6.67921 24.7963 6.76461 26.7143C6.82599 28.0206 7.00199 28.8979 7.31723 29.7099C7.59849 30.4343 7.93416 30.9573 8.48743 31.5106C9.04771 32.0701 9.56964 32.4056 10.2864 32.6823C11.1103 33.0008 11.9858 33.1768 13.2869 33.2369C15.127 33.3231 15.77 33.3333 20.0017 33.3333C24.1258 33.3333 24.798 33.3223 26.716 33.2369C28.0195 33.1758 28.8975 32.9993 29.7117 32.6842C30.434 32.4038 30.9587 32.0669 31.5123 31.5141C32.0727 30.9529 32.4075 30.4323 32.6845 29.7138C33.0022 28.8929 33.1785 28.0163 33.2387 26.7148C33.3248 24.8746 33.335 24.2314 33.335 19.9999C33.335 15.8758 33.324 15.2036 33.2387 13.2855C33.1773 11.9817 33.0008 11.1024 32.6855 10.2886C32.4057 9.56722 32.0695 9.04383 31.514 8.4875C30.955 7.9285 30.436 7.5948 29.7118 7.31562C28.8967 6.99915 28.0207 6.82318 26.7163 6.76293C24.8763 6.67667 24.2332 6.66659 20.0017 6.66659ZM20.0017 3.33325C24.5293 3.33325 25.0947 3.34992 26.8725 3.43325C28.646 3.5152 29.8558 3.79575 30.9183 4.20825C32.0168 4.63187 32.9447 5.20409 33.871 6.13047C34.796 7.05687 35.3683 7.98742 35.7933 9.08325C36.2043 10.1444 36.485 11.3555 36.5683 13.1291C36.6475 14.9069 36.6683 15.4721 36.6683 19.9999C36.6683 24.5278 36.6517 25.0929 36.5683 26.8708C36.4863 28.6444 36.2043 29.8541 35.7933 30.9166C35.3697 32.0152 34.796 32.9429 33.871 33.8694C32.9447 34.7944 32.0127 35.3666 30.9183 35.7916C29.8558 36.2028 28.646 36.4833 26.8725 36.5666C25.0947 36.6458 24.5293 36.6666 20.0017 36.6666C15.4738 36.6666 14.9086 36.6499 13.1308 36.5666C11.3572 36.4846 10.1488 36.2028 9.08496 35.7916C7.98773 35.3679 7.05856 34.7944 6.13218 33.8694C5.20579 32.9429 4.63496 32.0111 4.20996 30.9166C3.79746 29.8541 3.51829 28.6444 3.43496 26.8708C3.35579 25.0929 3.33496 24.5278 3.33496 19.9999C3.33496 15.4721 3.35163 14.9069 3.43496 13.1291C3.51689 11.3541 3.79746 10.1458 4.20996 9.08325C4.63356 7.98603 5.20579 7.05687 6.13218 6.13047C7.05856 5.20409 7.98913 4.63325 9.08496 4.20825C10.1475 3.79575 11.3558 3.51659 13.1308 3.43325C14.9086 3.35409 15.4738 3.33325 20.0017 3.33325Z" fill="white" fill-opacity="0.8"/>
</svg>
