<svg width="40" height="40" viewBox="0 0 40 40" fill="none" xmlns="http://www.w3.org/2000/svg">
<path d="M9.46427 30.205C5.1552 27.6097 2.50159 23.52 2.50159 19.0087C2.50159 11.1683 10.4147 5 20.0015 5C29.5883 5 37.5016 11.1683 37.5016 19.0087C37.5016 26.849 29.5883 33.0173 20.0015 33.0173C19.2651 33.0173 18.5325 32.9805 17.8056 32.9077L11.5304 37.0043C10.5043 37.5477 9.9347 37.7135 9.05562 37.1142C8.02112 36.4088 8.06105 35.628 8.4191 34.516L9.46427 30.205ZM5.83492 19.0087C5.83492 22.5613 8.1978 25.8803 12.1367 27.8763L13.3141 28.473L13.0031 29.7558L12.3348 32.5037L17.0005 29.4518L17.6108 29.5305C18.4 29.6323 19.198 29.684 20.0015 29.684C27.9036 29.684 34.1683 24.8008 34.1683 19.0087C34.1683 13.2165 27.9036 8.33333 20.0015 8.33333C12.0994 8.33333 5.83492 13.2165 5.83492 19.0087ZM29.8466 18.4318L32.3691 22.0233C32.6188 22.3788 32.5331 22.8695 32.1776 23.119C32.0401 23.2155 31.8825 23.2622 31.7261 23.2622C31.4788 23.2622 31.235 23.1455 31.0818 22.9275L28.7021 19.5393L27.9895 20.2288V22.5C27.9895 22.9343 27.6375 23.2865 27.203 23.2865C26.7688 23.2865 26.4165 22.9343 26.4165 22.5V20.1018C26.3875 19.9798 26.3868 19.8538 26.4165 19.7322V15.4704C26.4165 15.0362 26.7688 14.684 27.203 14.684C27.6375 14.684 27.9895 15.0362 27.9895 15.4704V18.0398L31.2031 14.9298C31.5156 14.6278 32.0135 14.6362 32.3155 14.948C32.6175 15.2603 32.6093 15.7581 32.2971 16.0603L29.8466 18.4318ZM24.9171 21.6398C25.3516 21.6398 25.7036 21.992 25.7036 22.4262C25.7036 22.8607 25.3516 23.2127 24.9171 23.2127H21.6973C21.2631 23.2127 20.9111 22.8607 20.9111 22.4262V15.495C20.9111 15.0608 21.2631 14.7086 21.6973 14.7086C22.1318 14.7086 22.484 15.0608 22.484 15.495V21.6398H24.9171ZM15.1553 19.8208H17.3775L16.3153 16.9748L15.1553 19.8208ZM19.3598 20.6337L19.9353 22.1757C20.0873 22.5828 19.8806 23.036 19.4736 23.1877C19.383 23.2215 19.2901 23.2375 19.1988 23.2375C18.8796 23.2377 18.5798 23.0423 18.4616 22.726L17.9645 21.394H14.5142L13.9624 22.7477C13.7986 23.15 13.3396 23.3433 12.9373 23.1793C12.5351 23.0153 12.3419 22.5562 12.5058 22.154L15.2742 15.3612C15.4677 14.8945 15.8991 14.6046 16.3626 14.6171C16.8341 14.6302 17.2446 14.9398 17.4086 15.4063L19.151 20.0742C19.2811 20.2145 19.3625 20.4008 19.3625 20.6075C19.3625 20.6165 19.3601 20.6247 19.3598 20.6337ZM13.8241 15.5032C13.8241 15.9375 13.4718 16.2897 13.0376 16.2897H11.1368V22.5165C11.1368 22.9508 10.7846 23.3028 10.3502 23.3028C9.9159 23.3028 9.56369 22.9508 9.56369 22.5165V16.2897H7.63032C7.19587 16.2897 6.84365 15.9375 6.84365 15.5032C6.84365 15.069 7.19587 14.7168 7.63032 14.7168H13.0376C13.4718 14.7168 13.8241 15.069 13.8241 15.5032Z" fill="white" fill-opacity="0.8"/>
</svg>
