<svg width="40" height="40" viewBox="0 0 40 40" fill="none" xmlns="http://www.w3.org/2000/svg">
<path d="M21.6683 33.2301C28.2455 32.4099 33.335 26.7993 33.335 19.9999C33.335 12.6361 27.3655 6.66659 20.0017 6.66659C12.6378 6.66659 6.66829 12.6361 6.66829 19.9999C6.66829 26.7993 11.7578 32.4099 18.335 33.2301V23.3333H15.0016V19.9999H18.335V17.2429C18.335 15.0142 18.567 14.206 19.0028 13.3911C19.4385 12.5763 20.078 11.9369 20.8928 11.5011C21.5307 11.16 22.3218 10.9541 23.7045 10.8658C24.2532 10.8308 24.9635 10.8755 25.835 10.9999V14.1666H25.0017C23.4728 14.1666 22.842 14.2388 22.4648 14.4405C22.231 14.5656 22.0673 14.7292 21.9422 14.9631C21.7405 15.3402 21.6683 15.7141 21.6683 17.2429V19.9999H25.835L25.0017 23.3333H21.6683V33.2301ZM20.0017 36.6666C10.7969 36.6666 3.33496 29.2046 3.33496 19.9999C3.33496 10.7952 10.7969 3.33325 20.0017 3.33325C29.2063 3.33325 36.6683 10.7952 36.6683 19.9999C36.6683 29.2046 29.2063 36.6666 20.0017 36.6666Z" fill="white" fill-opacity="0.8"/>
</svg>
