<svg width="28" height="28" viewBox="0 0 28 28" fill="none" xmlns="http://www.w3.org/2000/svg">
<path fill-rule="evenodd" clip-rule="evenodd" d="M26.25 14C26.25 14.2321 26.1578 14.4546 25.9937 14.6187C25.8296 14.7828 25.607 14.875 25.375 14.875L4.73723 14.875L10.2445 20.3805C10.4088 20.5448 10.5011 20.7676 10.5011 21C10.5011 21.2324 10.4088 21.4552 10.2445 21.6195C10.0802 21.7838 9.85733 21.8761 9.62498 21.8761C9.39262 21.8761 9.16978 21.7838 9.00548 21.6195L2.00548 14.6195C1.92399 14.5382 1.85934 14.4417 1.81523 14.3354C1.77112 14.2291 1.74841 14.1151 1.74841 14C1.74841 13.8849 1.77112 13.771 1.81523 13.6646C1.85934 13.5583 1.92399 13.4618 2.00548 13.3805L9.00548 6.38051C9.08683 6.29915 9.18341 6.23462 9.2897 6.19059C9.396 6.14656 9.50992 6.1239 9.62498 6.1239C9.85733 6.1239 10.0802 6.2162 10.2445 6.38051C10.4088 6.54481 10.5011 6.76765 10.5011 7.00001C10.5011 7.23236 10.4088 7.45521 10.2445 7.61951L4.73723 13.125L25.375 13.125C25.607 13.125 25.8296 13.2172 25.9937 13.3813C26.1578 13.5454 26.25 13.7679 26.25 14Z" fill="#010101" fill-opacity="0.9"/>
</svg>
